<mxfile host="app.diagrams.net" modified="2023-12-15T10:44:09.463Z" agent="Mozilla/5.0 (X11; Linux x86_64; rv:109.0) Gecko/20100101 Firefox/115.0" etag="4HK_X3_QGL6u8SI1v4Tj" version="22.1.9" type="github" pages="3">
  <diagram id="XfFQc4lpr45RmB7iYrq8" name="Page-2">
    <mxGraphModel dx="1834" dy="1190" grid="0" gridSize="10" guides="1" tooltips="1" connect="1" arrows="1" fold="1" page="0" pageScale="1" pageWidth="850" pageHeight="1100" background="none" math="0" shadow="0">
      <root>
        <mxCell id="0" />
        <mxCell id="1" parent="0" />
        <mxCell id="HX8A5rJwsRxUEgA0GypL-1" value="" style="whiteSpace=wrap;html=1;aspect=fixed;fillColor=#000000;strokeWidth=4;strokeColor=#FFFFFF;perimeterSpacing=5;" vertex="1" parent="1">
          <mxGeometry x="-182" y="-4" width="1218" height="1220" as="geometry" />
        </mxCell>
        <mxCell id="BUTNde6oCuLkYMGQmW4x-39" style="edgeStyle=orthogonalEdgeStyle;rounded=0;orthogonalLoop=1;jettySize=auto;html=1;" edge="1" parent="1" source="BUTNde6oCuLkYMGQmW4x-2" target="BUTNde6oCuLkYMGQmW4x-3">
          <mxGeometry relative="1" as="geometry" />
        </mxCell>
        <mxCell id="BUTNde6oCuLkYMGQmW4x-41" value="" style="edgeStyle=orthogonalEdgeStyle;rounded=0;orthogonalLoop=1;jettySize=auto;html=1;" edge="1" parent="1" source="BUTNde6oCuLkYMGQmW4x-2" target="BUTNde6oCuLkYMGQmW4x-3">
          <mxGeometry relative="1" as="geometry" />
        </mxCell>
        <mxCell id="bxC1SI5Ce3kbiHqST6tL-2" style="edgeStyle=orthogonalEdgeStyle;rounded=0;orthogonalLoop=1;jettySize=auto;html=1;entryX=0.5;entryY=0;entryDx=0;entryDy=0;strokeColor=#FFFFFF;" edge="1" parent="1" source="BUTNde6oCuLkYMGQmW4x-2" target="BUTNde6oCuLkYMGQmW4x-3">
          <mxGeometry relative="1" as="geometry" />
        </mxCell>
        <mxCell id="BUTNde6oCuLkYMGQmW4x-2" value="&lt;h1 style=&quot;font-size: 34px;&quot;&gt;Institute&lt;/h1&gt;" style="text;html=1;strokeColor=none;fillColor=none;align=center;verticalAlign=middle;whiteSpace=wrap;rounded=0;labelBackgroundColor=none;fontColor=#FFFFFF;" vertex="1" parent="1">
          <mxGeometry x="290" y="60" width="230" height="30" as="geometry" />
        </mxCell>
        <mxCell id="bxC1SI5Ce3kbiHqST6tL-3" style="edgeStyle=orthogonalEdgeStyle;rounded=0;orthogonalLoop=1;jettySize=auto;html=1;entryX=0.5;entryY=0;entryDx=0;entryDy=0;strokeColor=#FFFFFF;" edge="1" parent="1" source="BUTNde6oCuLkYMGQmW4x-3" target="BUTNde6oCuLkYMGQmW4x-8">
          <mxGeometry relative="1" as="geometry" />
        </mxCell>
        <mxCell id="bxC1SI5Ce3kbiHqST6tL-4" value="" style="edgeStyle=orthogonalEdgeStyle;rounded=0;orthogonalLoop=1;jettySize=auto;html=1;" edge="1" parent="1" source="BUTNde6oCuLkYMGQmW4x-3" target="BUTNde6oCuLkYMGQmW4x-9">
          <mxGeometry relative="1" as="geometry" />
        </mxCell>
        <mxCell id="bxC1SI5Ce3kbiHqST6tL-8" style="edgeStyle=orthogonalEdgeStyle;rounded=0;orthogonalLoop=1;jettySize=auto;html=1;entryX=0.5;entryY=0;entryDx=0;entryDy=0;strokeColor=#FFFFFF;" edge="1" parent="1" source="BUTNde6oCuLkYMGQmW4x-3" target="BUTNde6oCuLkYMGQmW4x-9">
          <mxGeometry relative="1" as="geometry" />
        </mxCell>
        <mxCell id="bxC1SI5Ce3kbiHqST6tL-10" style="edgeStyle=orthogonalEdgeStyle;rounded=0;orthogonalLoop=1;jettySize=auto;html=1;entryX=0.569;entryY=-0.029;entryDx=0;entryDy=0;entryPerimeter=0;fillColor=#FFFFFF;strokeColor=#FFFFFF;" edge="1" parent="1" source="BUTNde6oCuLkYMGQmW4x-3" target="BUTNde6oCuLkYMGQmW4x-17">
          <mxGeometry relative="1" as="geometry" />
        </mxCell>
        <mxCell id="BUTNde6oCuLkYMGQmW4x-3" value="&lt;h3 style=&quot;font-size: 15px;&quot;&gt;&lt;font style=&quot;font-size: 20px;&quot;&gt;Home&lt;/font&gt;&lt;/h3&gt;" style="text;html=1;strokeColor=none;fillColor=none;align=center;verticalAlign=middle;whiteSpace=wrap;rounded=0;labelBackgroundColor=none;fontColor=#FFFFFF;" vertex="1" parent="1">
          <mxGeometry x="375" y="190" width="60" height="30" as="geometry" />
        </mxCell>
        <mxCell id="bxC1SI5Ce3kbiHqST6tL-16" style="edgeStyle=orthogonalEdgeStyle;rounded=0;orthogonalLoop=1;jettySize=auto;html=1;entryX=0.5;entryY=0;entryDx=0;entryDy=0;strokeColor=#FFFFFF;" edge="1" parent="1" source="BUTNde6oCuLkYMGQmW4x-4" target="BUTNde6oCuLkYMGQmW4x-6">
          <mxGeometry relative="1" as="geometry" />
        </mxCell>
        <mxCell id="bxC1SI5Ce3kbiHqST6tL-17" style="edgeStyle=orthogonalEdgeStyle;rounded=0;orthogonalLoop=1;jettySize=auto;html=1;entryX=0.5;entryY=0;entryDx=0;entryDy=0;strokeColor=#FFFFFF;" edge="1" parent="1" source="BUTNde6oCuLkYMGQmW4x-4" target="BUTNde6oCuLkYMGQmW4x-7">
          <mxGeometry relative="1" as="geometry" />
        </mxCell>
        <mxCell id="bxC1SI5Ce3kbiHqST6tL-20" value="" style="edgeStyle=orthogonalEdgeStyle;rounded=0;orthogonalLoop=1;jettySize=auto;html=1;" edge="1" parent="1" source="BUTNde6oCuLkYMGQmW4x-4" target="BUTNde6oCuLkYMGQmW4x-5">
          <mxGeometry relative="1" as="geometry" />
        </mxCell>
        <mxCell id="BUTNde6oCuLkYMGQmW4x-4" value="&lt;font style=&quot;font-size: 18px;&quot;&gt;Staff&lt;/font&gt;" style="text;html=1;strokeColor=none;fillColor=none;align=center;verticalAlign=middle;whiteSpace=wrap;rounded=0;labelBackgroundColor=none;fontColor=#FFFFFF;" vertex="1" parent="1">
          <mxGeometry x="660" y="362" width="60" height="34" as="geometry" />
        </mxCell>
        <mxCell id="BUTNde6oCuLkYMGQmW4x-5" value="Register" style="text;html=1;strokeColor=none;fillColor=none;align=center;verticalAlign=middle;whiteSpace=wrap;rounded=0;labelBackgroundColor=none;fontColor=#FFFFFF;" vertex="1" parent="1">
          <mxGeometry x="663" y="423" width="60" height="34" as="geometry" />
        </mxCell>
        <mxCell id="BUTNde6oCuLkYMGQmW4x-6" value="Designation" style="text;html=1;strokeColor=none;fillColor=none;align=center;verticalAlign=middle;whiteSpace=wrap;rounded=0;labelBackgroundColor=none;fontColor=#FFFFFF;" vertex="1" parent="1">
          <mxGeometry x="567" y="423" width="60" height="34" as="geometry" />
        </mxCell>
        <mxCell id="BUTNde6oCuLkYMGQmW4x-7" value="View edit" style="text;html=1;strokeColor=none;fillColor=none;align=center;verticalAlign=middle;whiteSpace=wrap;rounded=0;labelBackgroundColor=none;fontColor=#FFFFFF;" vertex="1" parent="1">
          <mxGeometry x="759" y="421" width="60" height="34" as="geometry" />
        </mxCell>
        <mxCell id="BUTNde6oCuLkYMGQmW4x-8" value="Create Institute" style="text;html=1;strokeColor=none;fillColor=none;align=center;verticalAlign=middle;whiteSpace=wrap;rounded=0;labelBackgroundColor=none;fontColor=#FFFFFF;" vertex="1" parent="1">
          <mxGeometry x="257" y="240" width="100" height="30" as="geometry" />
        </mxCell>
        <mxCell id="BUTNde6oCuLkYMGQmW4x-9" value="View Institute" style="text;html=1;strokeColor=none;fillColor=none;align=center;verticalAlign=middle;whiteSpace=wrap;rounded=0;labelBackgroundColor=none;fontColor=#FFFFFF;" vertex="1" parent="1">
          <mxGeometry x="453" y="240" width="100" height="30" as="geometry" />
        </mxCell>
        <mxCell id="bxC1SI5Ce3kbiHqST6tL-13" style="edgeStyle=orthogonalEdgeStyle;rounded=0;orthogonalLoop=1;jettySize=auto;html=1;entryX=0.5;entryY=0;entryDx=0;entryDy=0;strokeColor=#FFFFFF;fillColor=#FFFFFF;" edge="1" parent="1" source="BUTNde6oCuLkYMGQmW4x-10" target="BUTNde6oCuLkYMGQmW4x-13">
          <mxGeometry relative="1" as="geometry" />
        </mxCell>
        <mxCell id="bxC1SI5Ce3kbiHqST6tL-14" style="edgeStyle=orthogonalEdgeStyle;rounded=0;orthogonalLoop=1;jettySize=auto;html=1;entryX=0.5;entryY=0;entryDx=0;entryDy=0;strokeColor=#FFFFFF;" edge="1" parent="1" source="BUTNde6oCuLkYMGQmW4x-10" target="BUTNde6oCuLkYMGQmW4x-12">
          <mxGeometry relative="1" as="geometry" />
        </mxCell>
        <mxCell id="bxC1SI5Ce3kbiHqST6tL-15" style="edgeStyle=orthogonalEdgeStyle;rounded=0;orthogonalLoop=1;jettySize=auto;html=1;entryX=0.5;entryY=0;entryDx=0;entryDy=0;strokeColor=#FFFFFF;" edge="1" parent="1" source="BUTNde6oCuLkYMGQmW4x-10" target="BUTNde6oCuLkYMGQmW4x-11">
          <mxGeometry relative="1" as="geometry" />
        </mxCell>
        <mxCell id="BUTNde6oCuLkYMGQmW4x-10" value="&lt;font style=&quot;font-size: 18px;&quot;&gt;Student&lt;/font&gt;" style="text;html=1;strokeColor=none;fillColor=none;align=center;verticalAlign=middle;whiteSpace=wrap;rounded=0;labelBackgroundColor=none;fontColor=#FFFFFF;" vertex="1" parent="1">
          <mxGeometry x="87" y="365" width="60" height="31" as="geometry" />
        </mxCell>
        <mxCell id="BUTNde6oCuLkYMGQmW4x-11" value="Add" style="text;html=1;strokeColor=none;fillColor=none;align=center;verticalAlign=middle;whiteSpace=wrap;rounded=0;labelBackgroundColor=none;fontColor=#FFFFFF;" vertex="1" parent="1">
          <mxGeometry x="90" y="445" width="60" height="31" as="geometry" />
        </mxCell>
        <mxCell id="BUTNde6oCuLkYMGQmW4x-12" value="Search" style="text;html=1;strokeColor=none;fillColor=none;align=center;verticalAlign=middle;whiteSpace=wrap;rounded=0;labelBackgroundColor=none;fontColor=#FFFFFF;" vertex="1" parent="1">
          <mxGeometry x="185" y="445" width="60" height="31" as="geometry" />
        </mxCell>
        <mxCell id="BUTNde6oCuLkYMGQmW4x-13" value="View" style="text;html=1;strokeColor=none;fillColor=none;align=center;verticalAlign=middle;whiteSpace=wrap;rounded=0;labelBackgroundColor=none;fontColor=#FFFFFF;" vertex="1" parent="1">
          <mxGeometry x="10" y="443.5" width="60" height="31" as="geometry" />
        </mxCell>
        <mxCell id="BUTNde6oCuLkYMGQmW4x-14" value="&amp;nbsp;Class" style="text;html=1;strokeColor=none;fillColor=none;align=center;verticalAlign=middle;whiteSpace=wrap;rounded=0;labelBackgroundColor=none;fontColor=#FFFFFF;" vertex="1" parent="1">
          <mxGeometry x="160" y="570" width="62" height="34" as="geometry" />
        </mxCell>
        <mxCell id="BUTNde6oCuLkYMGQmW4x-15" value="Add Class" style="text;html=1;strokeColor=none;fillColor=none;align=center;verticalAlign=middle;whiteSpace=wrap;rounded=0;labelBackgroundColor=none;fontColor=#FFFFFF;" vertex="1" parent="1">
          <mxGeometry x="153" y="656" width="62" height="34" as="geometry" />
        </mxCell>
        <mxCell id="BUTNde6oCuLkYMGQmW4x-16" value="Edit Class" style="text;html=1;strokeColor=none;fillColor=none;align=center;verticalAlign=middle;whiteSpace=wrap;rounded=0;labelBackgroundColor=none;fontColor=#FFFFFF;" vertex="1" parent="1">
          <mxGeometry x="153" y="724" width="62" height="34" as="geometry" />
        </mxCell>
        <mxCell id="5PcJ2tvyWqNSQ-_DcHKA-1" value="" style="edgeStyle=orthogonalEdgeStyle;rounded=0;orthogonalLoop=1;jettySize=auto;html=1;" edge="1" parent="1" source="BUTNde6oCuLkYMGQmW4x-17" target="BUTNde6oCuLkYMGQmW4x-28">
          <mxGeometry relative="1" as="geometry" />
        </mxCell>
        <mxCell id="5PcJ2tvyWqNSQ-_DcHKA-2" style="edgeStyle=orthogonalEdgeStyle;rounded=0;orthogonalLoop=1;jettySize=auto;html=1;exitX=0.5;exitY=1;exitDx=0;exitDy=0;" edge="1" parent="1">
          <mxGeometry relative="1" as="geometry">
            <mxPoint x="406" y="526" as="sourcePoint" />
            <mxPoint x="415" y="553" as="targetPoint" />
          </mxGeometry>
        </mxCell>
        <mxCell id="BUTNde6oCuLkYMGQmW4x-17" value="&lt;font style=&quot;font-size: 18px;&quot;&gt;&amp;nbsp;&amp;nbsp;&amp;nbsp;&amp;nbsp;&amp;nbsp;&amp;nbsp; Classes&lt;/font&gt;" style="text;html=1;strokeColor=none;fillColor=none;align=center;verticalAlign=middle;whiteSpace=wrap;rounded=0;labelBackgroundColor=none;fontColor=#FFFFFF;" vertex="1" parent="1">
          <mxGeometry x="331" y="492" width="130" height="34" as="geometry" />
        </mxCell>
        <mxCell id="BUTNde6oCuLkYMGQmW4x-18" value="Subject" style="text;html=1;strokeColor=none;fillColor=none;align=center;verticalAlign=middle;whiteSpace=wrap;rounded=0;labelBackgroundColor=none;fontColor=#FFFFFF;" vertex="1" parent="1">
          <mxGeometry x="748" y="570" width="62" height="34" as="geometry" />
        </mxCell>
        <mxCell id="BUTNde6oCuLkYMGQmW4x-19" value="Add Subject" style="text;html=1;strokeColor=none;fillColor=none;align=center;verticalAlign=middle;whiteSpace=wrap;rounded=0;labelBackgroundColor=none;fontColor=#FFFFFF;" vertex="1" parent="1">
          <mxGeometry x="734" y="640" width="96" height="34" as="geometry" />
        </mxCell>
        <mxCell id="BUTNde6oCuLkYMGQmW4x-20" value="Acticate/Deactivate Subject" style="text;html=1;strokeColor=none;fillColor=none;align=center;verticalAlign=middle;whiteSpace=wrap;rounded=0;labelBackgroundColor=none;fontColor=#FFFFFF;" vertex="1" parent="1">
          <mxGeometry x="714" y="720" width="136" height="34" as="geometry" />
        </mxCell>
        <mxCell id="BUTNde6oCuLkYMGQmW4x-21" value="Fee" style="text;html=1;strokeColor=none;fillColor=none;align=center;verticalAlign=middle;whiteSpace=wrap;rounded=0;labelBackgroundColor=none;fontColor=#FFFFFF;" vertex="1" parent="1">
          <mxGeometry x="37" y="570" width="62" height="34" as="geometry" />
        </mxCell>
        <mxCell id="BUTNde6oCuLkYMGQmW4x-22" value="Add Fees" style="text;html=1;strokeColor=none;fillColor=none;align=center;verticalAlign=middle;whiteSpace=wrap;rounded=0;labelBackgroundColor=none;fontColor=#FFFFFF;" vertex="1" parent="1">
          <mxGeometry x="20" y="656" width="96" height="34" as="geometry" />
        </mxCell>
        <mxCell id="BUTNde6oCuLkYMGQmW4x-23" value="View Fees" style="text;html=1;strokeColor=none;fillColor=none;align=center;verticalAlign=middle;whiteSpace=wrap;rounded=0;labelBackgroundColor=none;fontColor=#FFFFFF;" vertex="1" parent="1">
          <mxGeometry y="720" width="136" height="34" as="geometry" />
        </mxCell>
        <mxCell id="BUTNde6oCuLkYMGQmW4x-24" value="Chapter" style="text;html=1;strokeColor=none;fillColor=none;align=center;verticalAlign=middle;whiteSpace=wrap;rounded=0;labelBackgroundColor=none;fontColor=#FFFFFF;" vertex="1" parent="1">
          <mxGeometry x="627" y="570" width="62" height="34" as="geometry" />
        </mxCell>
        <mxCell id="BUTNde6oCuLkYMGQmW4x-25" value="Add Chapter" style="text;html=1;strokeColor=none;fillColor=none;align=center;verticalAlign=middle;whiteSpace=wrap;rounded=0;labelBackgroundColor=none;fontColor=#FFFFFF;" vertex="1" parent="1">
          <mxGeometry x="610" y="640" width="96" height="34" as="geometry" />
        </mxCell>
        <mxCell id="BUTNde6oCuLkYMGQmW4x-26" value="View Chapter" style="text;html=1;strokeColor=none;fillColor=none;align=center;verticalAlign=middle;whiteSpace=wrap;rounded=0;labelBackgroundColor=none;fontColor=#FFFFFF;" vertex="1" parent="1">
          <mxGeometry x="592" y="720" width="136" height="34" as="geometry" />
        </mxCell>
        <mxCell id="BUTNde6oCuLkYMGQmW4x-27" value="Assessments" style="text;html=1;strokeColor=none;fillColor=none;align=center;verticalAlign=middle;whiteSpace=wrap;rounded=0;labelBackgroundColor=none;fontColor=#FFFFFF;" vertex="1" parent="1">
          <mxGeometry x="341" y="553" width="128" height="34" as="geometry" />
        </mxCell>
        <mxCell id="BUTNde6oCuLkYMGQmW4x-28" value="Upload Papers" style="text;html=1;strokeColor=none;fillColor=none;align=center;verticalAlign=middle;whiteSpace=wrap;rounded=0;labelBackgroundColor=none;fontColor=#FFFFFF;" vertex="1" parent="1">
          <mxGeometry x="336" y="624" width="138" height="34" as="geometry" />
        </mxCell>
        <mxCell id="BUTNde6oCuLkYMGQmW4x-29" value="Add Question" style="text;html=1;strokeColor=none;fillColor=none;align=center;verticalAlign=middle;whiteSpace=wrap;rounded=0;labelBackgroundColor=none;fontColor=#FFFFFF;" vertex="1" parent="1">
          <mxGeometry x="338" y="724" width="134" height="34" as="geometry" />
        </mxCell>
        <mxCell id="BUTNde6oCuLkYMGQmW4x-30" value="View " style="text;html=1;strokeColor=none;fillColor=none;align=center;verticalAlign=middle;whiteSpace=wrap;rounded=0;labelBackgroundColor=none;fontColor=#FFFFFF;" vertex="1" parent="1">
          <mxGeometry x="342" y="780" width="134" height="34" as="geometry" />
        </mxCell>
        <mxCell id="BUTNde6oCuLkYMGQmW4x-31" value="Create Assessment" style="text;html=1;strokeColor=none;fillColor=none;align=center;verticalAlign=middle;whiteSpace=wrap;rounded=0;labelBackgroundColor=none;fontColor=#FFFFFF;" vertex="1" parent="1">
          <mxGeometry x="239" y="850" width="136" height="34" as="geometry" />
        </mxCell>
        <mxCell id="BUTNde6oCuLkYMGQmW4x-32" value="Create Test" style="text;html=1;strokeColor=none;fillColor=none;align=center;verticalAlign=middle;whiteSpace=wrap;rounded=0;labelBackgroundColor=none;fontColor=#FFFFFF;" vertex="1" parent="1">
          <mxGeometry x="444" y="850" width="136" height="34" as="geometry" />
        </mxCell>
        <mxCell id="BUTNde6oCuLkYMGQmW4x-33" value="Homework" style="text;html=1;strokeColor=none;fillColor=none;align=center;verticalAlign=middle;whiteSpace=wrap;rounded=0;labelBackgroundColor=none;fontColor=#FFFFFF;" vertex="1" parent="1">
          <mxGeometry x="520" y="570" width="62" height="34" as="geometry" />
        </mxCell>
        <mxCell id="BUTNde6oCuLkYMGQmW4x-34" value="Add " style="text;html=1;strokeColor=none;fillColor=none;align=center;verticalAlign=middle;whiteSpace=wrap;rounded=0;labelBackgroundColor=none;fontColor=#FFFFFF;" vertex="1" parent="1">
          <mxGeometry x="496" y="644" width="96" height="34" as="geometry" />
        </mxCell>
        <mxCell id="BUTNde6oCuLkYMGQmW4x-35" value="View" style="text;html=1;strokeColor=none;fillColor=none;align=center;verticalAlign=middle;whiteSpace=wrap;rounded=0;labelBackgroundColor=none;fontColor=#FFFFFF;" vertex="1" parent="1">
          <mxGeometry x="503" y="724" width="96" height="34" as="geometry" />
        </mxCell>
        <mxCell id="BUTNde6oCuLkYMGQmW4x-36" value="Text" style="text;html=1;align=center;verticalAlign=middle;resizable=0;points=[];autosize=1;strokeColor=none;fillColor=none;" vertex="1" parent="1">
          <mxGeometry x="426" y="508" width="50" height="30" as="geometry" />
        </mxCell>
        <mxCell id="BUTNde6oCuLkYMGQmW4x-37" value="Text" style="text;html=1;align=center;verticalAlign=middle;resizable=0;points=[];autosize=1;strokeColor=none;fillColor=none;" vertex="1" parent="1">
          <mxGeometry x="336" y="468" width="50" height="30" as="geometry" />
        </mxCell>
        <mxCell id="BUTNde6oCuLkYMGQmW4x-40" style="edgeStyle=orthogonalEdgeStyle;rounded=0;orthogonalLoop=1;jettySize=auto;html=1;entryX=0.5;entryY=1;entryDx=0;entryDy=0;" edge="1" parent="1" source="BUTNde6oCuLkYMGQmW4x-2" target="BUTNde6oCuLkYMGQmW4x-2">
          <mxGeometry relative="1" as="geometry" />
        </mxCell>
      </root>
    </mxGraphModel>
  </diagram>
  <diagram id="AHa-VYXpj9-PuK_xeE5P" name="Page-3">
    <mxGraphModel dx="1434" dy="1190" grid="0" gridSize="10" guides="1" tooltips="1" connect="1" arrows="1" fold="1" page="0" pageScale="1" pageWidth="850" pageHeight="1100" background="#000000" math="0" shadow="0">
      <root>
        <mxCell id="0" />
        <mxCell id="1" parent="0" />
        <mxCell id="RcnfmCFYJh19YP77GaBL-2" value="Text" style="text;html=1;align=center;verticalAlign=middle;resizable=0;points=[];autosize=1;strokeColor=none;fillColor=none;" vertex="1" parent="1">
          <mxGeometry x="158.5" y="-211" width="41" height="26" as="geometry" />
        </mxCell>
        <mxCell id="RcnfmCFYJh19YP77GaBL-8" style="edgeStyle=orthogonalEdgeStyle;rounded=0;orthogonalLoop=1;jettySize=auto;html=1;" edge="1" parent="1" source="RcnfmCFYJh19YP77GaBL-7">
          <mxGeometry relative="1" as="geometry">
            <mxPoint x="550" y="23" as="targetPoint" />
          </mxGeometry>
        </mxCell>
        <mxCell id="RcnfmCFYJh19YP77GaBL-7" value="Text" style="text;html=1;align=center;verticalAlign=middle;resizable=0;points=[];autosize=1;strokeColor=none;fillColor=none;" vertex="1" parent="1">
          <mxGeometry x="580.5" y="-146" width="41" height="26" as="geometry" />
        </mxCell>
      </root>
    </mxGraphModel>
  </diagram>
  <diagram name="Page-1" id="QvPNZaajVMxAod5KXhOd">
    <mxGraphModel dx="2284" dy="790" grid="0" gridSize="10" guides="1" tooltips="1" connect="1" arrows="1" fold="1" page="1" pageScale="1" pageWidth="850" pageHeight="1100" background="none" math="0" shadow="0">
      <root>
        <mxCell id="0" />
        <mxCell id="1" parent="0" />
        <mxCell id="bK7Jser6WUz6FWJgmEhk-16" style="edgeStyle=orthogonalEdgeStyle;rounded=0;orthogonalLoop=1;jettySize=auto;html=1;exitX=0.5;exitY=1;exitDx=0;exitDy=0;entryX=0.5;entryY=0;entryDx=0;entryDy=0;labelBackgroundColor=none;fontColor=#000000;strokeColor=#9673a6;fillColor=#e1d5e7;" parent="1" source="bK7Jser6WUz6FWJgmEhk-2" target="bK7Jser6WUz6FWJgmEhk-3" edge="1">
          <mxGeometry relative="1" as="geometry" />
        </mxCell>
        <mxCell id="bK7Jser6WUz6FWJgmEhk-2" value="&lt;h1 style=&quot;font-size: 34px;&quot;&gt;Institute&lt;/h1&gt;" style="text;html=1;strokeColor=#9673a6;fillColor=#e1d5e7;align=center;verticalAlign=middle;whiteSpace=wrap;rounded=0;labelBackgroundColor=none;" parent="1" vertex="1">
          <mxGeometry x="290" y="35" width="230" height="55" as="geometry" />
        </mxCell>
        <mxCell id="WCCemP8OaZmOhD-pO7ov-30" style="edgeStyle=orthogonalEdgeStyle;rounded=0;orthogonalLoop=1;jettySize=auto;html=1;entryX=0.5;entryY=0;entryDx=0;entryDy=0;fillColor=#e1d5e7;strokeColor=#9673a6;" parent="1" source="bK7Jser6WUz6FWJgmEhk-3" target="bK7Jser6WUz6FWJgmEhk-22" edge="1">
          <mxGeometry relative="1" as="geometry" />
        </mxCell>
        <mxCell id="WCCemP8OaZmOhD-pO7ov-31" style="edgeStyle=orthogonalEdgeStyle;rounded=0;orthogonalLoop=1;jettySize=auto;html=1;exitX=0.5;exitY=1;exitDx=0;exitDy=0;fillColor=#e1d5e7;strokeColor=#9673a6;" parent="1" source="bK7Jser6WUz6FWJgmEhk-3" edge="1">
          <mxGeometry relative="1" as="geometry">
            <mxPoint x="405" y="349" as="targetPoint" />
          </mxGeometry>
        </mxCell>
        <mxCell id="WCCemP8OaZmOhD-pO7ov-33" style="edgeStyle=orthogonalEdgeStyle;rounded=0;orthogonalLoop=1;jettySize=auto;html=1;exitX=1;exitY=1;exitDx=0;exitDy=0;entryX=0.5;entryY=0;entryDx=0;entryDy=0;fillColor=#e1d5e7;strokeColor=#9673a6;" parent="1" source="bK7Jser6WUz6FWJgmEhk-3" target="bK7Jser6WUz6FWJgmEhk-4" edge="1">
          <mxGeometry relative="1" as="geometry" />
        </mxCell>
        <mxCell id="bK7Jser6WUz6FWJgmEhk-3" value="&lt;h3 style=&quot;font-size: 15px;&quot;&gt;&lt;font style=&quot;font-size: 20px;&quot;&gt;Home&lt;/font&gt;&lt;/h3&gt;" style="text;html=1;strokeColor=#9673a6;fillColor=#e1d5e7;align=center;verticalAlign=middle;whiteSpace=wrap;rounded=0;labelBackgroundColor=none;" parent="1" vertex="1">
          <mxGeometry x="375" y="190" width="60" height="30" as="geometry" />
        </mxCell>
        <mxCell id="WCCemP8OaZmOhD-pO7ov-40" style="edgeStyle=orthogonalEdgeStyle;rounded=0;orthogonalLoop=1;jettySize=auto;html=1;exitX=0.5;exitY=1;exitDx=0;exitDy=0;entryX=0.5;entryY=0;entryDx=0;entryDy=0;fillColor=#e1d5e7;strokeColor=#9673a6;" parent="1" source="bK7Jser6WUz6FWJgmEhk-4" target="bK7Jser6WUz6FWJgmEhk-5" edge="1">
          <mxGeometry relative="1" as="geometry" />
        </mxCell>
        <mxCell id="WCCemP8OaZmOhD-pO7ov-43" style="edgeStyle=orthogonalEdgeStyle;rounded=0;orthogonalLoop=1;jettySize=auto;html=1;entryX=0.25;entryY=0;entryDx=0;entryDy=0;fillColor=#e1d5e7;strokeColor=#9673a6;" parent="1" source="bK7Jser6WUz6FWJgmEhk-4" target="bK7Jser6WUz6FWJgmEhk-6" edge="1">
          <mxGeometry relative="1" as="geometry" />
        </mxCell>
        <mxCell id="WCCemP8OaZmOhD-pO7ov-44" style="edgeStyle=orthogonalEdgeStyle;rounded=0;orthogonalLoop=1;jettySize=auto;html=1;exitX=1;exitY=0.5;exitDx=0;exitDy=0;entryX=0.5;entryY=0;entryDx=0;entryDy=0;fillColor=#e1d5e7;strokeColor=#9673a6;" parent="1" source="bK7Jser6WUz6FWJgmEhk-4" target="bK7Jser6WUz6FWJgmEhk-8" edge="1">
          <mxGeometry relative="1" as="geometry" />
        </mxCell>
        <mxCell id="bK7Jser6WUz6FWJgmEhk-4" value="&lt;font style=&quot;font-size: 18px;&quot;&gt;Staff&lt;/font&gt;" style="text;html=1;strokeColor=#9673a6;fillColor=#e1d5e7;align=center;verticalAlign=middle;whiteSpace=wrap;rounded=0;labelBackgroundColor=none;" parent="1" vertex="1">
          <mxGeometry x="660" y="362" width="60" height="34" as="geometry" />
        </mxCell>
        <mxCell id="bK7Jser6WUz6FWJgmEhk-5" value="Register" style="text;html=1;strokeColor=#9673a6;fillColor=#e1d5e7;align=center;verticalAlign=middle;whiteSpace=wrap;rounded=0;labelBackgroundColor=none;" parent="1" vertex="1">
          <mxGeometry x="660" y="456" width="60" height="36" as="geometry" />
        </mxCell>
        <mxCell id="bK7Jser6WUz6FWJgmEhk-6" value="Designation" style="text;html=1;strokeColor=#9673a6;fillColor=#e1d5e7;align=center;verticalAlign=middle;whiteSpace=wrap;rounded=0;labelBackgroundColor=none;" parent="1" vertex="1">
          <mxGeometry x="548" y="456" width="60" height="36" as="geometry" />
        </mxCell>
        <mxCell id="bK7Jser6WUz6FWJgmEhk-8" value="View edit" style="text;html=1;strokeColor=#9673a6;fillColor=#e1d5e7;align=center;verticalAlign=middle;whiteSpace=wrap;rounded=0;labelBackgroundColor=none;" parent="1" vertex="1">
          <mxGeometry x="758" y="456" width="60" height="36" as="geometry" />
        </mxCell>
        <mxCell id="bK7Jser6WUz6FWJgmEhk-20" value="Create Institute" style="text;html=1;strokeColor=#9673a6;fillColor=#e1d5e7;align=center;verticalAlign=middle;whiteSpace=wrap;rounded=0;labelBackgroundColor=none;" parent="1" vertex="1">
          <mxGeometry x="136" y="240" width="100" height="30" as="geometry" />
        </mxCell>
        <mxCell id="bK7Jser6WUz6FWJgmEhk-22" value="View Institute" style="text;html=1;strokeColor=#9673a6;fillColor=#e1d5e7;align=center;verticalAlign=middle;whiteSpace=wrap;rounded=0;labelBackgroundColor=none;" parent="1" vertex="1">
          <mxGeometry x="592" y="240" width="100" height="30" as="geometry" />
        </mxCell>
        <mxCell id="WCCemP8OaZmOhD-pO7ov-34" style="edgeStyle=orthogonalEdgeStyle;rounded=0;orthogonalLoop=1;jettySize=auto;html=1;exitX=0.5;exitY=1;exitDx=0;exitDy=0;fillColor=#e1d5e7;strokeColor=#9673a6;" parent="1" source="bK7Jser6WUz6FWJgmEhk-27" edge="1">
          <mxGeometry relative="1" as="geometry">
            <mxPoint x="120" y="458" as="targetPoint" />
          </mxGeometry>
        </mxCell>
        <mxCell id="WCCemP8OaZmOhD-pO7ov-38" style="edgeStyle=orthogonalEdgeStyle;rounded=0;orthogonalLoop=1;jettySize=auto;html=1;exitX=0;exitY=0.75;exitDx=0;exitDy=0;entryX=0.5;entryY=0;entryDx=0;entryDy=0;fillColor=#e1d5e7;strokeColor=#9673a6;" parent="1" source="bK7Jser6WUz6FWJgmEhk-27" target="bK7Jser6WUz6FWJgmEhk-31" edge="1">
          <mxGeometry relative="1" as="geometry" />
        </mxCell>
        <mxCell id="WCCemP8OaZmOhD-pO7ov-39" style="edgeStyle=orthogonalEdgeStyle;rounded=0;orthogonalLoop=1;jettySize=auto;html=1;exitX=1;exitY=0.75;exitDx=0;exitDy=0;entryX=0.5;entryY=0;entryDx=0;entryDy=0;fillColor=#e1d5e7;strokeColor=#9673a6;" parent="1" source="bK7Jser6WUz6FWJgmEhk-27" target="bK7Jser6WUz6FWJgmEhk-30" edge="1">
          <mxGeometry relative="1" as="geometry" />
        </mxCell>
        <mxCell id="bK7Jser6WUz6FWJgmEhk-27" value="&lt;font style=&quot;font-size: 18px;&quot;&gt;Student&lt;/font&gt;" style="text;html=1;strokeColor=#9673a6;fillColor=#e1d5e7;align=center;verticalAlign=middle;whiteSpace=wrap;rounded=0;labelBackgroundColor=none;" parent="1" vertex="1">
          <mxGeometry x="90" y="370" width="60" height="31" as="geometry" />
        </mxCell>
        <mxCell id="bK7Jser6WUz6FWJgmEhk-29" value="Add" style="text;html=1;strokeColor=#9673a6;fillColor=#e1d5e7;align=center;verticalAlign=middle;whiteSpace=wrap;rounded=0;labelBackgroundColor=none;" parent="1" vertex="1">
          <mxGeometry x="88" y="465" width="60" height="31" as="geometry" />
        </mxCell>
        <mxCell id="bK7Jser6WUz6FWJgmEhk-30" value="Search" style="text;html=1;strokeColor=#9673a6;fillColor=#e1d5e7;align=center;verticalAlign=middle;whiteSpace=wrap;rounded=0;labelBackgroundColor=none;" parent="1" vertex="1">
          <mxGeometry x="181" y="465" width="60" height="31" as="geometry" />
        </mxCell>
        <mxCell id="bK7Jser6WUz6FWJgmEhk-31" value="View" style="text;html=1;strokeColor=#9673a6;fillColor=#e1d5e7;align=center;verticalAlign=middle;whiteSpace=wrap;rounded=0;labelBackgroundColor=none;" parent="1" vertex="1">
          <mxGeometry x="9" y="465" width="60" height="31" as="geometry" />
        </mxCell>
        <mxCell id="WCCemP8OaZmOhD-pO7ov-10" style="edgeStyle=orthogonalEdgeStyle;rounded=0;orthogonalLoop=1;jettySize=auto;html=1;entryX=0.5;entryY=0;entryDx=0;entryDy=0;fillColor=#e1d5e7;strokeColor=#9673a6;" parent="1" source="bK7Jser6WUz6FWJgmEhk-50" target="bK7Jser6WUz6FWJgmEhk-51" edge="1">
          <mxGeometry relative="1" as="geometry">
            <mxPoint x="186" y="661" as="targetPoint" />
          </mxGeometry>
        </mxCell>
        <mxCell id="WCCemP8OaZmOhD-pO7ov-51" style="edgeStyle=orthogonalEdgeStyle;rounded=0;orthogonalLoop=1;jettySize=auto;html=1;startArrow=classic;startFill=1;endArrow=none;endFill=0;fillColor=#e1d5e7;strokeColor=#9673a6;" parent="1" source="bK7Jser6WUz6FWJgmEhk-50" edge="1">
          <mxGeometry relative="1" as="geometry">
            <mxPoint x="186" y="503" as="targetPoint" />
          </mxGeometry>
        </mxCell>
        <mxCell id="bK7Jser6WUz6FWJgmEhk-50" value="&amp;nbsp;Class" style="text;html=1;strokeColor=#9673a6;fillColor=#e1d5e7;align=center;verticalAlign=middle;whiteSpace=wrap;rounded=0;labelBackgroundColor=none;" parent="1" vertex="1">
          <mxGeometry x="155" y="582" width="62" height="34" as="geometry" />
        </mxCell>
        <mxCell id="bK7Jser6WUz6FWJgmEhk-51" value="Add Class" style="text;html=1;strokeColor=#9673a6;fillColor=#e1d5e7;align=center;verticalAlign=middle;whiteSpace=wrap;rounded=0;labelBackgroundColor=none;" parent="1" vertex="1">
          <mxGeometry x="112" y="711" width="62" height="34" as="geometry" />
        </mxCell>
        <mxCell id="WCCemP8OaZmOhD-pO7ov-58" style="edgeStyle=orthogonalEdgeStyle;rounded=0;orthogonalLoop=1;jettySize=auto;html=1;entryX=0.5;entryY=1;entryDx=0;entryDy=0;startArrow=classic;startFill=1;endArrow=none;endFill=0;fillColor=#e1d5e7;strokeColor=#9673a6;" parent="1" source="bK7Jser6WUz6FWJgmEhk-52" target="bK7Jser6WUz6FWJgmEhk-50" edge="1">
          <mxGeometry relative="1" as="geometry" />
        </mxCell>
        <mxCell id="bK7Jser6WUz6FWJgmEhk-52" value="Edit Class" style="text;html=1;strokeColor=#9673a6;fillColor=#e1d5e7;align=center;verticalAlign=middle;whiteSpace=wrap;rounded=0;labelBackgroundColor=none;" parent="1" vertex="1">
          <mxGeometry x="209" y="711" width="62" height="34" as="geometry" />
        </mxCell>
        <mxCell id="WCCemP8OaZmOhD-pO7ov-25" style="edgeStyle=orthogonalEdgeStyle;rounded=0;orthogonalLoop=1;jettySize=auto;html=1;exitX=0.5;exitY=1;exitDx=0;exitDy=0;endArrow=none;endFill=0;fillColor=#e1d5e7;strokeColor=#9673a6;" parent="1" source="bK7Jser6WUz6FWJgmEhk-55" edge="1">
          <mxGeometry relative="1" as="geometry">
            <mxPoint x="400" y="506" as="targetPoint" />
          </mxGeometry>
        </mxCell>
        <mxCell id="bK7Jser6WUz6FWJgmEhk-55" value="&lt;font style=&quot;font-size: 18px;&quot;&gt;Classes&lt;/font&gt;" style="text;html=1;strokeColor=#9673a6;fillColor=#e1d5e7;align=center;verticalAlign=middle;whiteSpace=wrap;rounded=0;labelBackgroundColor=none;" parent="1" vertex="1">
          <mxGeometry x="335" y="362" width="130" height="34" as="geometry" />
        </mxCell>
        <mxCell id="bK7Jser6WUz6FWJgmEhk-56" value="Subject" style="text;html=1;strokeColor=#9673a6;fillColor=#e1d5e7;align=center;verticalAlign=middle;whiteSpace=wrap;rounded=0;labelBackgroundColor=none;" parent="1" vertex="1">
          <mxGeometry x="748" y="582" width="62" height="34" as="geometry" />
        </mxCell>
        <mxCell id="WCCemP8OaZmOhD-pO7ov-24" style="edgeStyle=orthogonalEdgeStyle;rounded=0;orthogonalLoop=1;jettySize=auto;html=1;exitX=0.5;exitY=1;exitDx=0;exitDy=0;fillColor=#e1d5e7;strokeColor=#9673a6;" parent="1" edge="1">
          <mxGeometry relative="1" as="geometry">
            <mxPoint x="778" y="767" as="targetPoint" />
            <mxPoint x="778" y="717" as="sourcePoint" />
          </mxGeometry>
        </mxCell>
        <mxCell id="bK7Jser6WUz6FWJgmEhk-57" value="Add Subject" style="text;html=1;strokeColor=#9673a6;fillColor=#e1d5e7;align=center;verticalAlign=middle;whiteSpace=wrap;rounded=0;labelBackgroundColor=none;" parent="1" vertex="1">
          <mxGeometry x="740" y="683" width="96" height="34" as="geometry" />
        </mxCell>
        <mxCell id="bK7Jser6WUz6FWJgmEhk-58" value="Acticate/Deactivate Subject" style="text;html=1;strokeColor=#9673a6;fillColor=#e1d5e7;align=center;verticalAlign=middle;whiteSpace=wrap;rounded=0;labelBackgroundColor=none;" parent="1" vertex="1">
          <mxGeometry x="716" y="774" width="136" height="34" as="geometry" />
        </mxCell>
        <mxCell id="WCCemP8OaZmOhD-pO7ov-8" style="edgeStyle=orthogonalEdgeStyle;rounded=0;orthogonalLoop=1;jettySize=auto;html=1;exitX=0.5;exitY=1;exitDx=0;exitDy=0;fillColor=#e1d5e7;strokeColor=#9673a6;" parent="1" source="bK7Jser6WUz6FWJgmEhk-62" target="bK7Jser6WUz6FWJgmEhk-63" edge="1">
          <mxGeometry relative="1" as="geometry" />
        </mxCell>
        <mxCell id="WCCemP8OaZmOhD-pO7ov-50" style="edgeStyle=orthogonalEdgeStyle;rounded=0;orthogonalLoop=1;jettySize=auto;html=1;entryX=0.5;entryY=0;entryDx=0;entryDy=0;startArrow=classic;startFill=1;fillColor=#e1d5e7;strokeColor=#9673a6;" parent="1" edge="1">
          <mxGeometry relative="1" as="geometry">
            <mxPoint x="69" y="578" as="sourcePoint" />
            <mxPoint x="780" y="574" as="targetPoint" />
            <Array as="points">
              <mxPoint x="69" y="505" />
              <mxPoint x="780" y="505" />
            </Array>
          </mxGeometry>
        </mxCell>
        <mxCell id="bK7Jser6WUz6FWJgmEhk-62" value="Fee" style="text;html=1;strokeColor=#9673a6;fillColor=#e1d5e7;align=center;verticalAlign=middle;whiteSpace=wrap;rounded=0;labelBackgroundColor=none;" parent="1" vertex="1">
          <mxGeometry x="37" y="582" width="62" height="34" as="geometry" />
        </mxCell>
        <mxCell id="bK7Jser6WUz6FWJgmEhk-63" value="Add Fees" style="text;html=1;strokeColor=#9673a6;fillColor=#e1d5e7;align=center;verticalAlign=middle;whiteSpace=wrap;rounded=0;labelBackgroundColor=none;" parent="1" vertex="1">
          <mxGeometry x="-12" y="668" width="96" height="34" as="geometry" />
        </mxCell>
        <mxCell id="WCCemP8OaZmOhD-pO7ov-57" style="edgeStyle=orthogonalEdgeStyle;rounded=0;orthogonalLoop=1;jettySize=auto;html=1;entryX=0.5;entryY=1;entryDx=0;entryDy=0;endArrow=none;endFill=0;startArrow=classic;startFill=1;fillColor=#e1d5e7;strokeColor=#9673a6;" parent="1" source="bK7Jser6WUz6FWJgmEhk-64" target="bK7Jser6WUz6FWJgmEhk-62" edge="1">
          <mxGeometry relative="1" as="geometry" />
        </mxCell>
        <mxCell id="bK7Jser6WUz6FWJgmEhk-64" value="View Fees" style="text;html=1;strokeColor=#9673a6;fillColor=#e1d5e7;align=center;verticalAlign=middle;whiteSpace=wrap;rounded=0;labelBackgroundColor=none;" parent="1" vertex="1">
          <mxGeometry x="35" y="668" width="136" height="34" as="geometry" />
        </mxCell>
        <mxCell id="WCCemP8OaZmOhD-pO7ov-54" style="edgeStyle=orthogonalEdgeStyle;rounded=0;orthogonalLoop=1;jettySize=auto;html=1;startArrow=classic;startFill=1;endArrow=none;endFill=0;fillColor=#e1d5e7;strokeColor=#9673a6;" parent="1" source="bK7Jser6WUz6FWJgmEhk-65" edge="1">
          <mxGeometry relative="1" as="geometry">
            <mxPoint x="658" y="505" as="targetPoint" />
          </mxGeometry>
        </mxCell>
        <mxCell id="cqICHkUrQoC2dx-1eRIU-16" style="edgeStyle=orthogonalEdgeStyle;rounded=0;orthogonalLoop=1;jettySize=auto;html=1;exitX=0.25;exitY=1;exitDx=0;exitDy=0;entryX=0.5;entryY=0;entryDx=0;entryDy=0;fillColor=#e1d5e7;strokeColor=#9673a6;" parent="1" source="bK7Jser6WUz6FWJgmEhk-65" target="bK7Jser6WUz6FWJgmEhk-66" edge="1">
          <mxGeometry relative="1" as="geometry" />
        </mxCell>
        <mxCell id="bK7Jser6WUz6FWJgmEhk-65" value="Chapter" style="text;html=1;strokeColor=#9673a6;fillColor=#e1d5e7;align=center;verticalAlign=middle;whiteSpace=wrap;rounded=0;labelBackgroundColor=none;" parent="1" vertex="1">
          <mxGeometry x="627" y="584" width="62" height="34" as="geometry" />
        </mxCell>
        <mxCell id="bK7Jser6WUz6FWJgmEhk-66" value="Add Chapter" style="text;html=1;strokeColor=#9673a6;fillColor=#e1d5e7;align=center;verticalAlign=middle;whiteSpace=wrap;rounded=0;labelBackgroundColor=none;" parent="1" vertex="1">
          <mxGeometry x="425" y="761" width="96" height="34" as="geometry" />
        </mxCell>
        <mxCell id="bK7Jser6WUz6FWJgmEhk-67" value="View Chapter" style="text;html=1;strokeColor=#9673a6;fillColor=#e1d5e7;align=center;verticalAlign=middle;whiteSpace=wrap;rounded=0;labelBackgroundColor=none;" parent="1" vertex="1">
          <mxGeometry x="580" y="764" width="136" height="34" as="geometry" />
        </mxCell>
        <mxCell id="WCCemP8OaZmOhD-pO7ov-55" style="edgeStyle=orthogonalEdgeStyle;rounded=0;orthogonalLoop=1;jettySize=auto;html=1;startArrow=classic;startFill=1;endArrow=none;endFill=0;exitX=0.5;exitY=0;exitDx=0;exitDy=0;fillColor=#e1d5e7;strokeColor=#9673a6;" parent="1" source="bK7Jser6WUz6FWJgmEhk-68" edge="1">
          <mxGeometry relative="1" as="geometry">
            <mxPoint x="400" y="507" as="targetPoint" />
            <mxPoint x="295" y="578" as="sourcePoint" />
          </mxGeometry>
        </mxCell>
        <mxCell id="bK7Jser6WUz6FWJgmEhk-68" value="Assessments" style="text;html=1;strokeColor=#9673a6;fillColor=#e1d5e7;align=center;verticalAlign=middle;whiteSpace=wrap;rounded=0;labelBackgroundColor=none;" parent="1" vertex="1">
          <mxGeometry x="245" y="586" width="130" height="34" as="geometry" />
        </mxCell>
        <mxCell id="cqICHkUrQoC2dx-1eRIU-2" style="edgeStyle=orthogonalEdgeStyle;rounded=0;orthogonalLoop=1;jettySize=auto;html=1;startArrow=classic;startFill=1;endArrow=none;endFill=0;entryX=0.5;entryY=1;entryDx=0;entryDy=0;fillColor=#e1d5e7;strokeColor=#9673a6;" parent="1" source="bK7Jser6WUz6FWJgmEhk-69" target="bK7Jser6WUz6FWJgmEhk-68" edge="1">
          <mxGeometry relative="1" as="geometry">
            <mxPoint x="306" y="783" as="targetPoint" />
            <Array as="points">
              <mxPoint x="192" y="791" />
              <mxPoint x="307" y="791" />
              <mxPoint x="307" y="620" />
            </Array>
          </mxGeometry>
        </mxCell>
        <mxCell id="bK7Jser6WUz6FWJgmEhk-69" value="Upload Papers" style="text;html=1;strokeColor=#9673a6;fillColor=#e1d5e7;align=center;verticalAlign=middle;whiteSpace=wrap;rounded=0;labelBackgroundColor=none;" parent="1" vertex="1">
          <mxGeometry x="122" y="853" width="140" height="34" as="geometry" />
        </mxCell>
        <mxCell id="cqICHkUrQoC2dx-1eRIU-4" style="edgeStyle=orthogonalEdgeStyle;rounded=0;orthogonalLoop=1;jettySize=auto;html=1;endArrow=none;endFill=0;startArrow=classic;startFill=1;fillColor=#e1d5e7;strokeColor=#9673a6;" parent="1" edge="1">
          <mxGeometry relative="1" as="geometry">
            <mxPoint x="191" y="790" as="targetPoint" />
            <mxPoint x="40" y="851" as="sourcePoint" />
            <Array as="points">
              <mxPoint x="40" y="790" />
              <mxPoint x="181" y="790" />
            </Array>
          </mxGeometry>
        </mxCell>
        <mxCell id="bK7Jser6WUz6FWJgmEhk-70" value="Add Question" style="text;html=1;strokeColor=#9673a6;fillColor=#e1d5e7;align=center;verticalAlign=middle;whiteSpace=wrap;rounded=0;labelBackgroundColor=none;" parent="1" vertex="1">
          <mxGeometry x="-16" y="853" width="136" height="34" as="geometry" />
        </mxCell>
        <mxCell id="cqICHkUrQoC2dx-1eRIU-7" style="edgeStyle=orthogonalEdgeStyle;rounded=0;orthogonalLoop=1;jettySize=auto;html=1;startArrow=classic;startFill=1;endArrow=none;endFill=0;fillColor=#e1d5e7;strokeColor=#9673a6;" parent="1" source="bK7Jser6WUz6FWJgmEhk-71" edge="1">
          <mxGeometry relative="1" as="geometry">
            <mxPoint x="308" y="784" as="targetPoint" />
          </mxGeometry>
        </mxCell>
        <mxCell id="cqICHkUrQoC2dx-1eRIU-12" style="edgeStyle=orthogonalEdgeStyle;rounded=0;orthogonalLoop=1;jettySize=auto;html=1;exitX=0.5;exitY=1;exitDx=0;exitDy=0;entryX=0.5;entryY=0;entryDx=0;entryDy=0;fillColor=#e1d5e7;strokeColor=#9673a6;" parent="1" source="bK7Jser6WUz6FWJgmEhk-71" target="bK7Jser6WUz6FWJgmEhk-72" edge="1">
          <mxGeometry relative="1" as="geometry" />
        </mxCell>
        <mxCell id="bK7Jser6WUz6FWJgmEhk-71" value="View " style="text;html=1;strokeColor=#9673a6;fillColor=#e1d5e7;align=center;verticalAlign=middle;whiteSpace=wrap;rounded=0;labelBackgroundColor=none;" parent="1" vertex="1">
          <mxGeometry x="329" y="833" width="136" height="34" as="geometry" />
        </mxCell>
        <mxCell id="bK7Jser6WUz6FWJgmEhk-72" value="Create Assessment" style="text;html=1;strokeColor=#9673a6;fillColor=#e1d5e7;align=center;verticalAlign=middle;whiteSpace=wrap;rounded=0;labelBackgroundColor=none;" parent="1" vertex="1">
          <mxGeometry x="548" y="949" width="136" height="37" as="geometry" />
        </mxCell>
        <mxCell id="bK7Jser6WUz6FWJgmEhk-73" value="Create Test" style="text;html=1;strokeColor=#9673a6;fillColor=#e1d5e7;align=center;verticalAlign=middle;whiteSpace=wrap;rounded=0;labelBackgroundColor=none;" parent="1" vertex="1">
          <mxGeometry x="164" y="949" width="136" height="37" as="geometry" />
        </mxCell>
        <mxCell id="WCCemP8OaZmOhD-pO7ov-53" style="edgeStyle=orthogonalEdgeStyle;rounded=0;orthogonalLoop=1;jettySize=auto;html=1;startArrow=classic;startFill=1;endArrow=none;endFill=0;fillColor=#e1d5e7;strokeColor=#9673a6;" parent="1" source="bK7Jser6WUz6FWJgmEhk-74" edge="1">
          <mxGeometry relative="1" as="geometry">
            <mxPoint x="551" y="505" as="targetPoint" />
          </mxGeometry>
        </mxCell>
        <mxCell id="WCCemP8OaZmOhD-pO7ov-59" style="edgeStyle=orthogonalEdgeStyle;rounded=0;orthogonalLoop=1;jettySize=auto;html=1;entryX=0.5;entryY=0;entryDx=0;entryDy=0;fillColor=#e1d5e7;strokeColor=#9673a6;" parent="1" source="bK7Jser6WUz6FWJgmEhk-74" target="bK7Jser6WUz6FWJgmEhk-75" edge="1">
          <mxGeometry relative="1" as="geometry" />
        </mxCell>
        <mxCell id="bK7Jser6WUz6FWJgmEhk-74" value="Homework" style="text;html=1;strokeColor=#9673a6;fillColor=#e1d5e7;align=center;verticalAlign=middle;whiteSpace=wrap;rounded=0;labelBackgroundColor=none;" parent="1" vertex="1">
          <mxGeometry x="520" y="586" width="62" height="34" as="geometry" />
        </mxCell>
        <mxCell id="bK7Jser6WUz6FWJgmEhk-75" value="Add " style="text;html=1;strokeColor=#9673a6;fillColor=#e1d5e7;align=center;verticalAlign=middle;whiteSpace=wrap;rounded=0;labelBackgroundColor=none;" parent="1" vertex="1">
          <mxGeometry x="446" y="666" width="96" height="34" as="geometry" />
        </mxCell>
        <mxCell id="WCCemP8OaZmOhD-pO7ov-60" style="edgeStyle=orthogonalEdgeStyle;rounded=0;orthogonalLoop=1;jettySize=auto;html=1;entryX=0.5;entryY=1;entryDx=0;entryDy=0;startArrow=classic;startFill=1;endArrow=none;endFill=0;fillColor=#e1d5e7;strokeColor=#9673a6;" parent="1" source="bK7Jser6WUz6FWJgmEhk-76" target="bK7Jser6WUz6FWJgmEhk-74" edge="1">
          <mxGeometry relative="1" as="geometry">
            <Array as="points">
              <mxPoint x="599" y="643" />
              <mxPoint x="551" y="643" />
            </Array>
          </mxGeometry>
        </mxCell>
        <mxCell id="bK7Jser6WUz6FWJgmEhk-76" value="View" style="text;html=1;strokeColor=#9673a6;fillColor=#e1d5e7;align=center;verticalAlign=middle;whiteSpace=wrap;rounded=0;labelBackgroundColor=none;" parent="1" vertex="1">
          <mxGeometry x="551" y="666" width="96" height="34" as="geometry" />
        </mxCell>
        <mxCell id="WCCemP8OaZmOhD-pO7ov-23" style="edgeStyle=orthogonalEdgeStyle;rounded=0;orthogonalLoop=1;jettySize=auto;html=1;exitX=0.5;exitY=1;exitDx=0;exitDy=0;entryX=0.406;entryY=0.147;entryDx=0;entryDy=0;entryPerimeter=0;fillColor=#e1d5e7;strokeColor=#9673a6;" parent="1" source="bK7Jser6WUz6FWJgmEhk-56" target="bK7Jser6WUz6FWJgmEhk-57" edge="1">
          <mxGeometry relative="1" as="geometry" />
        </mxCell>
        <mxCell id="WCCemP8OaZmOhD-pO7ov-29" style="edgeStyle=orthogonalEdgeStyle;rounded=0;orthogonalLoop=1;jettySize=auto;html=1;entryX=0.43;entryY=-0.033;entryDx=0;entryDy=0;entryPerimeter=0;fillColor=#e1d5e7;strokeColor=#9673a6;" parent="1" source="bK7Jser6WUz6FWJgmEhk-3" target="bK7Jser6WUz6FWJgmEhk-20" edge="1">
          <mxGeometry relative="1" as="geometry" />
        </mxCell>
        <mxCell id="WCCemP8OaZmOhD-pO7ov-32" style="edgeStyle=orthogonalEdgeStyle;rounded=0;orthogonalLoop=1;jettySize=auto;html=1;exitX=0;exitY=1;exitDx=0;exitDy=0;entryX=0.383;entryY=-0.032;entryDx=0;entryDy=0;entryPerimeter=0;fillColor=#e1d5e7;strokeColor=#9673a6;" parent="1" source="bK7Jser6WUz6FWJgmEhk-3" target="bK7Jser6WUz6FWJgmEhk-27" edge="1">
          <mxGeometry relative="1" as="geometry">
            <Array as="points">
              <mxPoint x="375" y="295" />
              <mxPoint x="113" y="295" />
            </Array>
          </mxGeometry>
        </mxCell>
        <mxCell id="cqICHkUrQoC2dx-1eRIU-10" style="edgeStyle=orthogonalEdgeStyle;rounded=0;orthogonalLoop=1;jettySize=auto;html=1;exitX=0.5;exitY=1;exitDx=0;exitDy=0;entryX=0.449;entryY=0.081;entryDx=0;entryDy=0;entryPerimeter=0;fillColor=#e1d5e7;strokeColor=#9673a6;" parent="1" source="bK7Jser6WUz6FWJgmEhk-71" target="bK7Jser6WUz6FWJgmEhk-73" edge="1">
          <mxGeometry relative="1" as="geometry" />
        </mxCell>
        <mxCell id="cqICHkUrQoC2dx-1eRIU-14" style="edgeStyle=orthogonalEdgeStyle;rounded=0;orthogonalLoop=1;jettySize=auto;html=1;entryX=0.574;entryY=-0.147;entryDx=0;entryDy=0;entryPerimeter=0;fillColor=#e1d5e7;strokeColor=#9673a6;" parent="1" source="bK7Jser6WUz6FWJgmEhk-65" target="bK7Jser6WUz6FWJgmEhk-67" edge="1">
          <mxGeometry relative="1" as="geometry" />
        </mxCell>
      </root>
    </mxGraphModel>
  </diagram>
</mxfile>
